999
"DXF R12 Output" (www.mydxf.blogspot.com)
 0 
SECTION
 2 
HEADER
 9 
$ACADVER
 1 
AC1009
 9 
$EXTMIN
 10 
 0 
 20 
 0 
 9 
$EXTMAX
 10 
 8.5 
 20 
 11 
 0 
ENDSEC
 0 
SECTION
 2 
ENTITIES
0
LINE
8
Layer 1
10
1.157110
20
83.791800
11
27.066800
21
83.791800
0
LINE
8
Layer 1
10
27.066800
20
83.791800
11
27.506215
21
83.703086
0
LINE
8
Layer 1
10
27.506215
20
83.703086
11
27.865046
21
83.461156
0
LINE
8
Layer 1
10
27.865046
20
83.461156
11
28.106976
21
83.102325
0
LINE
8
Layer 1
10
28.106976
20
83.102325
11
28.195690
21
82.662910
0
LINE
8
Layer 1
10
28.195690
20
82.662910
11
28.195600
21
56.765200
0
LINE
8
Layer 1
10
28.195600
20
56.765200
11
28.106886
21
56.325785
0
LINE
8
Layer 1
10
28.106886
20
56.325785
11
27.864956
21
55.966954
0
LINE
8
Layer 1
10
27.864956
20
55.966954
11
27.506125
21
55.725024
0
LINE
8
Layer 1
10
27.506125
20
55.725024
11
27.066710
21
55.636310
0
LINE
8
Layer 1
10
27.066710
20
55.636310
11
1.157110
21
55.636310
0
LINE
8
Layer 1
10
1.157110
20
55.636310
11
0.725103
21
55.722242
0
LINE
8
Layer 1
10
0.725103
20
55.722242
11
0.358864
21
55.966954
0
LINE
8
Layer 1
10
0.358864
20
55.966954
11
0.114152
21
56.333193
0
LINE
8
Layer 1
10
0.114152
20
56.333193
11
0.028220
21
56.765200
0
LINE
8
Layer 1
10
0.028220
20
56.765200
11
0.028222
21
82.662900
0
LINE
8
Layer 1
10
0.028222
20
82.662900
11
0.114154
21
83.094907
0
LINE
8
Layer 1
10
0.114154
20
83.094907
11
0.358866
21
83.461146
0
LINE
8
Layer 1
10
0.358866
20
83.461146
11
0.725105
21
83.705858
0
LINE
8
Layer 1
10
0.725105
20
83.705858
11
1.157112
21
83.791790
0
LINE
8
Layer 1
10
1.157112
20
83.791790
11
1.157110
21
83.791800
0
LINE
8
Layer 1
10
9.902080
20
83.497000
11
12.957900
21
83.497000
0
LINE
8
Layer 1
10
12.957900
20
83.497000
11
13.157461
21
83.414339
0
LINE
8
Layer 1
10
13.157461
20
83.414339
11
13.240122
21
83.214778
0
LINE
8
Layer 1
10
13.240122
20
83.214778
11
13.240100
21
73.950100
0
LINE
8
Layer 1
10
13.240100
20
73.950100
11
13.157439
21
73.750539
0
LINE
8
Layer 1
10
13.157439
20
73.750539
11
12.957878
21
73.667878
0
LINE
8
Layer 1
10
12.957878
20
73.667878
11
9.902080
21
73.667900
0
LINE
8
Layer 1
10
9.902080
20
73.667900
11
9.702519
21
73.750561
0
LINE
8
Layer 1
10
9.702519
20
73.750561
11
9.619858
21
73.950122
0
LINE
8
Layer 1
10
9.619858
20
73.950122
11
9.619860
21
83.214800
0
LINE
8
Layer 1
10
9.619860
20
83.214800
11
9.702521
21
83.414361
0
LINE
8
Layer 1
10
9.702521
20
83.414361
11
9.902082
21
83.497022
0
LINE
8
Layer 1
10
9.902082
20
83.497022
11
9.902080
21
83.497000
0
LINE
8
Layer 1
10
13.853200
20
83.497100
11
16.909000
21
83.497100
0
LINE
8
Layer 1
10
16.909000
20
83.497100
11
17.108561
21
83.414439
0
LINE
8
Layer 1
10
17.108561
20
83.414439
11
17.191222
21
83.214878
0
LINE
8
Layer 1
10
17.191222
20
83.214878
11
17.191200
21
73.950200
0
LINE
8
Layer 1
10
17.191200
20
73.950200
11
17.108539
21
73.750639
0
LINE
8
Layer 1
10
17.108539
20
73.750639
11
16.908978
21
73.667978
0
LINE
8
Layer 1
10
16.908978
20
73.667978
11
13.853200
21
73.668000
0
LINE
8
Layer 1
10
13.853200
20
73.668000
11
13.653639
21
73.750661
0
LINE
8
Layer 1
10
13.653639
20
73.750661
11
13.570978
21
73.950222
0
LINE
8
Layer 1
10
13.570978
20
73.950222
11
13.571000
21
83.214900
0
LINE
8
Layer 1
10
13.571000
20
83.214900
11
13.653661
21
83.414461
0
LINE
8
Layer 1
10
13.653661
20
83.414461
11
13.853222
21
83.497122
0
LINE
8
Layer 1
10
13.853222
20
83.497122
11
13.853200
21
83.497100
0
LINE
8
Layer 1
10
19.641400
20
61.920800
11
25.090800
21
61.920800
0
LINE
8
Layer 1
10
25.090800
20
61.920800
11
25.290361
21
61.838139
0
LINE
8
Layer 1
10
25.290361
20
61.838139
11
25.373022
21
61.638578
0
LINE
8
Layer 1
10
25.373022
20
61.638578
11
25.373000
21
55.907000
0
LINE
8
Layer 1
10
25.373000
20
55.907000
11
25.290339
21
55.707439
0
LINE
8
Layer 1
10
25.290339
20
55.707439
11
25.090778
21
55.624778
0
LINE
8
Layer 1
10
25.090778
20
55.624778
11
19.641400
21
55.624800
0
LINE
8
Layer 1
10
19.641400
20
55.624800
11
19.441839
21
55.707461
0
LINE
8
Layer 1
10
19.441839
20
55.707461
11
19.359178
21
55.907022
0
LINE
8
Layer 1
10
19.359178
20
55.907022
11
19.359200
21
61.638600
0
LINE
8
Layer 1
10
19.359200
20
61.638600
11
19.441861
21
61.838161
0
LINE
8
Layer 1
10
19.441861
20
61.838161
11
19.641422
21
61.920822
0
LINE
8
Layer 1
10
19.641422
20
61.920822
11
19.641400
21
61.920800
 0 
ENDSEC
 0 
EOF