<?xml version="1.0" encoding="UTF-8" standalone="no"?>
<!-- Created with Inkscape (http://www.inkscape.org/) -->

<svg
   width="210mm"
   height="297mm"
   viewBox="0 0 210 297"
   version="1.1"
   id="svg5"
   inkscape:version="1.1.1 (3bf5ae0d25, 2021-09-20)"
   sodipodi:docname="inkscape_master_board_layout.svg"
   xmlns:inkscape="http://www.inkscape.org/namespaces/inkscape"
   xmlns:sodipodi="http://sodipodi.sourceforge.net/DTD/sodipodi-0.dtd"
   xmlns="http://www.w3.org/2000/svg"
   xmlns:svg="http://www.w3.org/2000/svg">
  <sodipodi:namedview
     id="namedview7"
     pagecolor="#ffffff"
     bordercolor="#666666"
     borderopacity="1.0"
     inkscape:pageshadow="2"
     inkscape:pageopacity="0.0"
     inkscape:pagecheckerboard="0"
     inkscape:document-units="mm"
     showgrid="false"
     inkscape:zoom="3.1108586"
     inkscape:cx="298.47065"
     inkscape:cy="328.68739"
     inkscape:window-width="2560"
     inkscape:window-height="1373"
     inkscape:window-x="1991"
     inkscape:window-y="-9"
     inkscape:window-maximized="1"
     inkscape:current-layer="layer1" />
  <defs
     id="defs2">
    <inkscape:path-effect
       effect="fillet_chamfer"
       id="path-effect1366"
       is_visible="true"
       lpeversion="1"
       satellites_param="F,0,0,1,0,1,0,1 @ F,0,0,1,0,1,0,1 @ F,0,0,1,0,1,0,1 @ F,0,0,1,0,1,0,1"
       unit="mm"
       method="auto"
       mode="F"
       radius="1"
       chamfer_steps="1"
       flexible="false"
       use_knot_distance="true"
       apply_no_radius="true"
       apply_with_radius="true"
       only_selected="false"
       hide_knots="false" />
    <inkscape:path-effect
       effect="fillet_chamfer"
       id="path-effect1230"
       is_visible="true"
       lpeversion="1"
       satellites_param="F,0,0,1,0,1,0,1 @ F,0,0,1,0,1,0,1 @ F,0,0,1,0,1,0,1 @ F,0,0,1,0,1,0,1"
       unit="mm"
       method="auto"
       mode="F"
       radius="1"
       chamfer_steps="1"
       flexible="false"
       use_knot_distance="true"
       apply_no_radius="true"
       apply_with_radius="true"
       only_selected="false"
       hide_knots="false" />
    <inkscape:path-effect
       effect="fillet_chamfer"
       id="path-effect1202"
       is_visible="true"
       lpeversion="1"
       satellites_param="F,0,0,1,0,1,0,1 @ F,0,0,1,0,1,0,1 @ F,0,0,1,0,1,0,1 @ F,0,0,1,0,1,0,1"
       unit="mm"
       method="auto"
       mode="F"
       radius="1"
       chamfer_steps="1"
       flexible="false"
       use_knot_distance="true"
       apply_no_radius="true"
       apply_with_radius="true"
       only_selected="false"
       hide_knots="false" />
    <inkscape:path-effect
       effect="fillet_chamfer"
       id="path-effect259"
       is_visible="true"
       lpeversion="1"
       satellites_param="F,0,0,1,0,4,0,1 @ F,0,0,1,0,4,0,1 @ F,0,0,1,0,4,0,1 @ F,0,0,1,0,4,0,1"
       unit="mm"
       method="auto"
       mode="F"
       radius="4"
       chamfer_steps="1"
       flexible="false"
       use_knot_distance="true"
       apply_no_radius="true"
       apply_with_radius="true"
       only_selected="false"
       hide_knots="false" />
  </defs>
  <g
     inkscape:label="Layer 1"
     inkscape:groupmode="layer"
     id="layer1">
    <path
       style="fill:none;stroke:#000000;stroke-width:0.2;stroke-miterlimit:4;stroke-dasharray:none;stroke-dashoffset:0"
       id="rect31"
       width="99.805908"
       height="99.763451"
       x="0.1"
       y="0.1"
       inkscape:path-effect="#path-effect259"
       d="m 4.1,0.1 h 91.805908 a 4,4 45 0 1 4,4 v 91.763451 a 4,4 135 0 1 -4,4 l -91.805908,0 a 4,4 45 0 1 -4,-4 V 4.1 a 4,4 135 0 1 4,-4 z"
       sodipodi:type="rect" />
    <path
       style="fill:none;stroke:#000000;stroke-width:0.17229;stroke-miterlimit:4;stroke-dasharray:none;stroke-dashoffset:0"
       id="rect1120"
       width="12.82771"
       height="34.827709"
       x="34.086143"
       y="1.1444783"
       inkscape:path-effect="#path-effect1202"
       d="m 35.086143,1.1444783 h 10.827711 a 1,1 45 0 1 1,1 V 34.972188 a 1,1 135 0 1 -1,1 H 35.086143 a 1,1 45 0 1 -1,-1 V 2.1444783 a 1,1 135 0 1 1,-1 z"
       sodipodi:type="rect" />
    <path
       style="fill:none;stroke:#000000;stroke-width:0.17229;stroke-miterlimit:4;stroke-dasharray:none;stroke-dashoffset:0"
       id="rect1120-6"
       width="12.82771"
       height="34.827709"
       x="48.086143"
       y="1.144145"
       inkscape:path-effect="#path-effect1230"
       sodipodi:type="rect"
       d="m 49.086143,1.144145 h 10.827711 a 1,1 45 0 1 1,1 v 32.827709 a 1,1 135 0 1 -1,1 H 49.086143 a 1,1 45 0 1 -1,-1 V 2.144145 a 1,1 135 0 1 1,-1 z" />
    <path
       style="fill:none;stroke:#000000;stroke-width:0.191158;stroke-miterlimit:4;stroke-dasharray:none;stroke-dashoffset:0"
       id="rect1275"
       width="29.808725"
       height="23.808857"
       x="68.095642"
       y="75.095642"
       inkscape:path-effect="#path-effect1366"
       d="m 69.095642,75.095642 h 27.808725 a 1,1 45 0 1 1,1 v 21.808857 a 1,1 135 0 1 -1,1 H 69.095642 a 1,1 45 0 1 -1,-1 V 76.095642 a 1,1 135 0 1 1,-1 z"
       sodipodi:type="rect" />
  </g>
</svg>
